<?xml version="1.0" standalone="no"?>
<!DOCTYPE svg PUBLIC "-//W3C//DTD SVG 20010904//EN"
 "http://www.w3.org/TR/2001/REC-SVG-20010904/DTD/svg10.dtd">
<svg version="1.0" xmlns="http://www.w3.org/2000/svg"
 width="700.000000pt" height="700.000000pt" viewBox="0 0 700.000000 700.000000"
 preserveAspectRatio="xMidYMid meet">
<g transform="translate(0.000000,700.000000) scale(0.100000,-0.100000)"
fill="#000000" stroke="none">
<path d="M3430 5537 c-131 -62 -151 -236 -36 -322 24 -18 26 -25 26 -97 l0
-78 80 0 80 0 0 78 c0 71 2 80 23 91 82 46 107 173 51 262 -41 66 -154 99
-224 66z"/>
<path d="M3265 4960 c-175 -44 -352 -140 -470 -257 -83 -81 -125 -129 -125
-143 0 -5 -3 -10 -7 -10 -8 0 -16 -13 -64 -98 -25 -43 -68 -147 -81 -192 -31
-114 -41 -201 -47 -404 l-6 -220 -27 -7 c-39 -10 -111 -63 -143 -105 -62 -81
-65 -106 -65 -543 0 -385 -1 -397 -20 -414 -11 -9 -24 -17 -29 -17 -15 0 -61
-102 -61 -136 0 -42 31 -114 61 -139 85 -73 218 -58 279 32 21 31 25 48 25
107 0 62 -4 76 -27 107 -15 19 -39 41 -53 49 l-25 13 0 233 0 233 28 -14 c15
-8 35 -16 45 -19 15 -5 17 -19 17 -118 0 -208 53 -357 170 -478 68 -72 168
-138 235 -157 131 -38 133 -38 635 -38 486 0 496 0 574 23 209 61 353 200 420
407 23 70 26 96 26 216 l0 137 28 10 c15 5 35 13 45 17 16 7 17 -8 17 -223 l0
-231 -29 -20 c-50 -36 -71 -80 -71 -152 0 -78 29 -128 92 -160 128 -65 268 21
268 166 0 65 -20 107 -69 143 l-31 23 0 397 c0 356 -2 403 -18 448 -36 103
-118 186 -204 208 l-28 6 0 221 c0 235 -6 285 -57 439 -22 66 -95 217 -112
230 -3 3 -25 30 -47 60 -63 84 -164 181 -211 203 -13 6 -23 13 -23 16 0 4 -17
15 -37 26 -21 10 -45 24 -53 30 -27 21 -164 72 -247 94 -109 28 -369 29 -478
1z m450 -329 c196 -53 305 -123 390 -251 86 -129 118 -307 79 -440 -27 -90
-68 -132 -166 -164 l-77 -26 -438 0 c-461 0 -468 1 -569 46 -106 47 -158 238
-111 404 9 30 19 66 23 80 4 14 18 42 31 62 12 21 23 41 23 45 0 8 98 104 139
137 53 41 179 92 296 119 11 3 85 5 165 6 113 0 160 -4 215 -18z m-109 -1682
c-37 -72 -65 -133 -62 -136 3 -4 54 -6 114 -5 59 1 114 -3 122 -9 17 -11 24
-4 -165 -167 -66 -56 -131 -113 -145 -125 -81 -73 -130 -108 -135 -95 -3 7 24
71 61 142 36 70 63 130 60 133 -3 4 -54 5 -113 5 -131 -2 -151 7 -108 46 56
50 278 241 390 335 56 48 51 12 -19 -124z"/>
<path d="M2972 4230 c-93 -57 -99 -195 -10 -253 90 -58 194 -21 228 82 22 68
-10 140 -77 175 -43 22 -101 20 -141 -4z"/>
<path d="M3893 4235 c-51 -23 -78 -70 -78 -137 0 -89 55 -146 143 -147 90 -2
147 57 146 150 -2 116 -103 181 -211 134z"/>
<path d="M3074 2165 c-11 -28 30 -108 82 -159 75 -75 169 -116 305 -132 57 -6
196 15 249 38 122 53 220 160 220 238 l0 30 -425 0 c-368 0 -426 -2 -431 -15z"/>
</g>
</svg>
